<svg width="360" height="467" version="1.1" xmlns="http://www.w3.org/2000/svg" desc="Created with imagetracer.js version 1.2.6" ><path fill="rgb(0,67,252)" stroke="rgb(0,67,252)" stroke-width="1" opacity="0.984313725490196" d="M 183.5 40 L 184 41.5 L 180.5 43 L 179 42.5 L 181.5 41 L 183 41.5 L 183.5 40 Z " /><path fill="rgb(0,67,252)" stroke="rgb(0,67,252)" stroke-width="1" opacity="0.984313725490196" d="M 189.5 40 L 192 41.5 L 190.5 42 L 189.5 40 Z " /><path fill="rgb(0,67,252)" stroke="rgb(0,67,252)" stroke-width="1" opacity="0.984313725490196" d="M 193.5 42 L 192.5 44 L 193.5 42 Z " /><path fill="rgb(0,67,252)" stroke="rgb(0,67,252)" stroke-width="1" opacity="0.984313725490196" d="M 180.5 44 Q 183.5 45.5 180.5 47 L 180.5 44 Z " /><path fill="rgb(0,67,252)" stroke="rgb(0,67,252)" stroke-width="1" opacity="0.984313725490196" d="M 200.5 46 L 203 47.5 L 201.5 48 L 200.5 46 Z " /><path fill="rgb(0,67,252)" stroke="rgb(0,67,252)" stroke-width="1" opacity="0.984313725490196" d="M 204.5 48 L 207 49.5 L 204 51 L 204.5 48 Z " /><path fill="rgb(0,67,252)" stroke="rgb(0,67,252)" stroke-width="1" opacity="0.984313725490196" d="M 200.5 49 Q 202.8 48.3 202 50.5 L 200.5 49 Z " /><path fill="rgb(0,67,252)" stroke="rgb(0,67,252)" stroke-width="1" opacity="0.984313725490196" d="M 163.5 50 L 167 52.5 L 165.5 52 L 163.5 51 L 162.5 53 L 168 54 L 167.5 56 L 163.5 54 L 163.5 56 L 161 52.5 L 163.5 50 Z " /><path fill="rgb(0,67,252)" stroke="rgb(0,67,252)" stroke-width="1" opacity="0.984313725490196" d="M 208.5 50 L 210.5 53 L 212 52.5 L 211.5 55 L 207 51.5 L 208.5 50 Z " /><path fill="rgb(0,67,252)" stroke="rgb(0,67,252)" stroke-width="1" opacity="0.984313725490196" d="M 203.5 52 L 207 53.5 L 205.5 54 L 203.5 52 Z " /><path fill="rgb(0,67,252)" stroke="rgb(0,67,252)" stroke-width="1" opacity="0.984313725490196" d="M 208.5 54 L 209.5 56 L 208.5 54 Z " /><path fill="rgb(0,67,252)" stroke="rgb(0,67,252)" stroke-width="1" opacity="0.984313725490196" d="M 219.5 56 L 225 59.5 L 223.5 60 L 220 59 L 219.5 56 Z " /><path fill="rgb(0,67,252)" stroke="rgb(0,67,252)" stroke-width="1" opacity="0.984313725490196" d="M 150.5 57 L 152 59.5 L 150.5 59 L 149 59.5 L 152 61.5 L 149.5 63 L 149.5 61 L 146.5 63 L 145 60.5 L 147 59.5 L 146 61.5 L 148 60.5 Q 146.9 57.2 149.5 58 L 150.5 57 Z " /><path fill="rgb(0,67,252)" stroke="rgb(0,67,252)" stroke-width="1" opacity="0.984313725490196" d="M 226.5 60 L 227 61.5 L 226.5 64 L 222 62.5 L 226.5 60 Z " /><path fill="rgb(0,67,252)" stroke="rgb(0,67,252)" stroke-width="1" opacity="0.984313725490196" d="M 233.5 64 L 233 67.5 L 233.5 69 L 236 67.5 Q 236.8 69.8 234.5 69 L 232 70 L 233 66.5 Q 230.8 65.3 233.5 64 Z " /><path fill="rgb(0,67,252)" stroke="rgb(0,67,252)" stroke-width="1" opacity="0.984313725490196" d="M 132 66 L 134 66.5 L 132 67.5 L 132 66 Z " /><path fill="rgb(0,67,252)" stroke="rgb(0,67,252)" stroke-width="1" opacity="0.984313725490196" d="M 237.5 66 L 242 69.5 L 241.5 71 L 241 69 L 238 69.5 L 240 70.5 L 238.5 71 Q 235.8 69.8 238 68.5 L 237.5 66 Z " /><path fill="rgb(0,67,252)" stroke="rgb(0,67,252)" stroke-width="1" opacity="0.984313725490196" d="M 134.5 68 L 136 71.5 L 133 71.5 L 134.5 68 Z " /><path fill="rgb(0,67,252)" stroke="rgb(0,67,252)" stroke-width="1" opacity="0.984313725490196" d="M 127.5 69 L 128.5 71 L 126.5 72 L 125.5 70 L 127 70.5 L 127.5 69 Z " /><path fill="rgb(0,67,252)" stroke="rgb(0,67,252)" stroke-width="1" opacity="0.984313725490196" d="M 131.5 69 L 133 69.5 L 130.5 71 L 131.5 69 Z " /><path fill="rgb(0,67,252)" stroke="rgb(0,67,252)" stroke-width="1" opacity="0.984313725490196" d="M 235.5 70 L 236.5 72 L 235.5 70 Z " /><path fill="rgb(0,67,252)" stroke="rgb(0,67,252)" stroke-width="1" opacity="0.984313725490196" d="M 248.5 72 L 254 75.5 L 254.5 77 L 256.5 77 L 260 78 L 259.5 80 L 255.5 77 L 253 77.5 L 251.5 80 L 250 79.5 L 252 78.5 L 250.5 76 L 248.5 77 L 249 75.5 L 248.5 72 Z " /><path fill="rgb(0,67,252)" stroke="rgb(0,67,252)" stroke-width="1" opacity="0.984313725490196" d="M 117.5 74 L 116.5 76 L 115 76.5 L 118 78.5 L 117.5 80 L 117 78 L 114.5 77 L 113.5 79 L 113 77.5 L 117.5 74 Z " /><path fill="rgb(0,67,252)" stroke="rgb(0,67,252)" stroke-width="1" opacity="0.984313725490196" d="M 104.5 81 L 103.5 83 L 102 82.5 L 104.5 81 Z " /><path fill="rgb(0,67,252)" stroke="rgb(0,67,252)" stroke-width="1" opacity="0.984313725490196" d="M 270.5 84 L 276 87.5 L 274.5 88 L 272.5 88 L 269.5 87 Q 267.8 89.8 266 85.5 L 268.5 87 L 270 85.5 L 270.5 84 Z " /><path fill="rgb(0,67,252)" stroke="rgb(0,67,252)" stroke-width="1" opacity="0.984313725490196" d="M 101.5 85 L 104 85.5 L 103.5 88 L 101.5 85 Z " /><path fill="rgb(0,67,252)" stroke="rgb(0,67,252)" stroke-width="1" opacity="0.984313725490196" d="M 277.5 88 L 283 91.5 L 281.5 91 Q 277.5 90.5 277.5 88 Z " /><path fill="rgb(0,67,252)" stroke="rgb(0,67,252)" stroke-width="1" opacity="0.984313725490196" d="M 81.5 93 L 80.5 95 L 77.5 96 L 77.5 95 L 81.5 93 Z " /><path fill="rgb(0,67,252)" stroke="rgb(0,67,252)" stroke-width="1" opacity="0.984313725490196" d="M 290.5 95 L 292.5 100 L 293 98.5 L 292 96.5 L 293.5 97 L 298 99.5 L 298.5 101 L 300 100.5 L 300.5 102 L 302.5 102 L 304 102.5 L 299.5 104 L 295 101.5 L 297 100.5 L 294.5 100 L 288.5 103 L 291 99.5 L 290 98.5 L 290.5 95 Z " /><path fill="rgb(0,67,252)" stroke="rgb(0,67,252)" stroke-width="1" opacity="0.984313725490196" d="M 75.5 96 L 76 97.5 L 75 99.5 L 77 98.5 L 77.5 97 L 78 98.5 L 77 99.5 L 80 102.5 L 78.5 104 L 75 102.5 L 76.5 103 L 79 102.5 L 71 98.5 L 72.5 99 L 74 98.5 L 73.5 97 L 75.5 96 Z " /><path fill="rgb(0,67,252)" stroke="rgb(0,67,252)" stroke-width="1" opacity="0.984313725490196" d="M 69.5 99 L 69.5 101 L 71 101.5 L 68.5 102 L 67.5 100 L 69.5 99 Z " /><path fill="rgb(0,67,252)" stroke="rgb(0,67,252)" stroke-width="1" opacity="0.984313725490196" d="M 64.5 102 L 65.5 104 L 64.5 102 Z " /><path fill="rgb(0,67,252)" stroke="rgb(0,67,252)" stroke-width="1" opacity="0.984313725490196" d="M 292.5 102 L 291.5 104 L 290 103.5 L 292.5 102 Z " /><path fill="rgb(0,67,252)" stroke="rgb(0,67,252)" stroke-width="1" opacity="0.984313725490196" d="M 306.5 104 L 307.5 106 L 309 105.5 Q 306.8 106.8 309.5 108 L 310.5 106 L 313 107.5 L 310 108 L 310.5 110 L 314.5 108 L 313.5 110 L 311 110.5 L 313 111.5 L 311.5 112 L 309.5 111 L 307.5 112 L 304 110.5 L 305.5 108 L 305 109.5 L 305.5 111 L 308 109.5 L 307.5 111 Q 310.5 111.7 309 108 Q 306.3 109.1 307 106.5 L 306.5 104 Z " /><path fill="rgb(0,67,252)" stroke="rgb(0,67,252)" stroke-width="1" opacity="0.984313725490196" d="M 58.5 105 L 57.5 107 L 56 106.5 L 58.5 105 Z " /><path fill="rgb(0,67,252)" stroke="rgb(0,67,252)" stroke-width="1" opacity="0.984313725490196" d="M 62.5 105 L 64 107.5 L 62 106.5 L 62.5 105 Z " /><path fill="rgb(0,67,252)" stroke="rgb(0,67,252)" stroke-width="1" opacity="0.984313725490196" d="M 54.5 107 L 53.5 109 L 52 109.5 L 52.5 111 L 50.5 112 L 48.5 112 L 45.5 113 L 46.5 111 L 54.5 107 Z " /><path fill="rgb(0,67,252)" stroke="rgb(0,67,252)" stroke-width="1" opacity="0.984313725490196" d="M 57.5 108 L 60 108.5 L 54.5 112 L 55 110.5 Q 54.3 108.3 56.5 109 L 57.5 108 Z " /><path fill="rgb(0,67,252)" stroke="rgb(0,67,252)" stroke-width="1" opacity="0.984313725490196" d="M 316.5 109 L 317 111.5 L 315 110.5 L 316.5 109 Z " /><path fill="rgb(0,67,252)" stroke="rgb(0,67,252)" stroke-width="1" opacity="0.984313725490196" d="M 58.5 110 L 61 111.5 L 59.5 111 L 57.5 112 L 58.5 110 Z " /><path fill="rgb(0,67,252)" stroke="rgb(0,67,252)" stroke-width="1" opacity="0.984313725490196" d="M 321.5 112 L 324 113 L 324.5 116 L 325.5 114 L 328 115.5 L 327.5 120 L 325.5 116 L 321 119.5 L 322 117.5 L 320 117.5 L 320 113.5 L 321.5 112 Z " /><path fill="rgb(0,67,252)" stroke="rgb(0,67,252)" stroke-width="1" opacity="0.984313725490196" d="M 43.5 113 L 46.5 115 L 48 114.5 L 47 116.5 L 47.5 118 L 45.5 117 L 43 118.5 L 45.5 115 L 43.5 116 L 43.5 113 Z " /><path fill="rgb(0,67,252)" stroke="rgb(0,67,252)" stroke-width="1" opacity="0.984313725490196" d="M 41.5 114 L 42 116.5 L 41.5 118 L 40 115.5 L 41.5 114 Z " /><path fill="rgb(0,67,252)" stroke="rgb(0,67,252)" stroke-width="1" opacity="0.984313725490196" d="M 38.5 117 L 37.5 119 L 38.5 117 Z " /><path fill="rgb(0,67,252)" stroke="rgb(0,67,252)" stroke-width="1" opacity="0.984313725490196" d="M 100.5 191 L 103 192.5 L 101.5 193 L 100.5 191 Z " /><path fill="rgb(0,67,252)" stroke="rgb(0,67,252)" stroke-width="1" opacity="0.984313725490196" d="M 119.5 202 L 122 203.5 L 120.5 203 L 119.5 202 Z " /><path fill="rgb(0,67,252)" stroke="rgb(0,67,252)" stroke-width="1" opacity="0.984313725490196" d="M 128.5 207 L 131 208.5 L 129.5 208 L 128.5 207 Z " /><path fill="rgb(0,67,252)" stroke="rgb(0,67,252)" stroke-width="1" opacity="0.984313725490196" d="M 139.5 213 L 140 215.5 L 139 215.5 L 139.5 213 Z " /><path fill="rgb(0,67,252)" stroke="rgb(0,67,252)" stroke-width="1" opacity="0.984313725490196" d="M 101.5 226 L 104 227.5 L 102.5 227 L 101.5 226 Z " /><path fill="rgb(0,67,252)" stroke="rgb(0,67,252)" stroke-width="1" opacity="0.984313725490196" d="M 83.5 250 L 86 251.5 L 84.5 251 L 83.5 250 Z " /><path fill="rgb(0,67,252)" stroke="rgb(0,67,252)" stroke-width="1" opacity="0.984313725490196" d="M 195.5 251 L 194.5 253 L 193 252.5 L 195.5 251 Z " /><path fill="rgb(0,67,252)" stroke="rgb(0,67,252)" stroke-width="1" opacity="0.984313725490196" d="M 191.5 253 L 190.5 255 L 191.5 253 Z " /><path fill="rgb(0,67,252)" stroke="rgb(0,67,252)" stroke-width="1" opacity="0.984313725490196" d="M 94.5 255 L 102 259.5 L 100.5 260 L 94 257 L 94.5 255 Z " /><path fill="rgb(0,67,252)" stroke="rgb(0,67,252)" stroke-width="1" opacity="0.984313725490196" d="M 320.5 257 L 321.5 259 Q 318.7 259.7 320.5 257 Z " /><path fill="rgb(0,67,252)" stroke="rgb(0,67,252)" stroke-width="1" opacity="0.984313725490196" d="M 327.5 257 L 327.5 260 L 325 258.5 L 327.5 257 Z " /><path fill="rgb(0,67,252)" stroke="rgb(0,67,252)" stroke-width="1" opacity="0.984313725490196" d="M 315.5 264 L 316 265.5 L 313.5 267 L 313.5 266 Q 316 266.7 315.5 264 Z " /><path fill="rgb(0,67,252)" stroke="rgb(0,67,252)" stroke-width="1" opacity="0.984313725490196" d="M 306.5 266 L 309 266.5 L 306.5 267 L 306.5 266 Z " /><path fill="rgb(0,67,252)" stroke="rgb(0,67,252)" stroke-width="1" opacity="0.984313725490196" d="M 289.5 272 L 288.5 274 L 289.5 272 Z " /><path fill="rgb(0,67,252)" stroke="rgb(0,67,252)" stroke-width="1" opacity="0.984313725490196" d="M 291.5 273 L 293 273.5 L 289.5 276 L 291.5 273 Z " /><path fill="rgb(0,67,252)" stroke="rgb(0,67,252)" stroke-width="1" opacity="0.984313725490196" d="M 295.5 276 L 294.5 278 L 295.5 276 Z " /><path fill="rgb(0,67,252)" stroke="rgb(0,67,252)" stroke-width="1" opacity="0.984313725490196" d="M 280.5 280 L 281.5 283 L 285.5 281 L 284.5 283 L 280.5 285 L 280.5 280 Z " /><path fill="rgb(0,67,252)" stroke="rgb(0,67,252)" stroke-width="1" opacity="0.984313725490196" d="M 265.5 288 L 269 290.5 L 267.5 290 L 265.5 289 L 264 289.5 L 265.5 288 Z " /><path fill="rgb(0,67,252)" stroke="rgb(0,67,252)" stroke-width="1" opacity="0.984313725490196" d="M 68.5 291 L 72 292.5 L 70.5 293 L 68.5 291 Z " /><path fill="rgb(0,67,252)" stroke="rgb(0,67,252)" stroke-width="1" opacity="0.984313725490196" d="M 249.5 298 L 249.5 300 L 252 300.5 L 248.5 302 L 248 299.5 L 249.5 298 Z " /><path fill="rgb(0,67,252)" stroke="rgb(0,67,252)" stroke-width="1" opacity="0.984313725490196" d="M 237.5 304 L 238.5 306 L 237.5 304 Z " /><path fill="rgb(0,67,252)" stroke="rgb(0,67,252)" stroke-width="1" opacity="0.984313725490196" d="M 219.5 312 Q 222.5 313.5 219.5 315 L 219.5 312 Z " /><path fill="rgb(0,67,252)" stroke="rgb(0,67,252)" stroke-width="1" opacity="0.984313725490196" d="M 211.5 320 L 210.5 322 L 211.5 320 Z " /><path fill="rgb(0,67,252)" stroke="rgb(0,67,252)" stroke-width="1" opacity="0.984313725490196" d="M 207.5 321 L 206.5 323 L 207.5 321 Z " /><path fill="rgb(0,67,252)" stroke="rgb(0,67,252)" stroke-width="1" opacity="0.984313725490196" d="M 202.5 323 L 202.5 326 L 200.5 327 L 201 325.5 L 202.5 323 Z " /><path fill="rgb(0,67,252)" stroke="rgb(0,67,252)" stroke-width="1" opacity="0.984313725490196" d="M 184.5 329 L 185.5 331 L 184.5 329 Z " /><path fill="rgb(0,67,252)" stroke="rgb(0,67,252)" stroke-width="1" opacity="0.984313725490196" d="M 187.5 331 L 189 331.5 L 184.5 334 L 184.5 333 L 187.5 331 Z " /><path fill="rgb(0,67,252)" stroke="rgb(0,67,252)" stroke-width="1" opacity="0.984313725490196" d="M 34.5 392 L 41 392.5 L 40.5 394 L 42 394.5 L 40.5 395 L 36.5 393 L 35.5 394 L 34.5 392 Z " /><path fill="rgb(0,67,252)" stroke="rgb(0,67,252)" stroke-width="1" opacity="0.984313725490196" d="M 42.5 397 L 43.5 399 L 42.5 397 Z " /><path fill="rgb(0,67,252)" stroke="rgb(0,67,252)" stroke-width="1" opacity="0.984313725490196" d="M 46.5 397 L 47 399.5 L 46 399.5 L 46.5 397 Z " /><path fill="rgb(0,67,252)" stroke="rgb(0,67,252)" stroke-width="1" opacity="0.984313725490196" d="M 52.5 400 L 55 400.5 Q 53 405 51 401.5 L 52.5 400 Z " /><path fill="rgb(0,67,252)" stroke="rgb(0,67,252)" stroke-width="1" opacity="0.984313725490196" d="M 69.5 409 L 72 410.5 L 70.5 413 L 69.5 411 L 71 410.5 L 69.5 409 Z " /><path fill="rgb(0,67,252)" stroke="rgb(0,67,252)" stroke-width="1" opacity="0.984313725490196" d="M 97.5 424 L 100 425.5 L 98.5 425 L 97.5 424 Z " /><path fill="rgb(0,67,252)" stroke="rgb(0,67,252)" stroke-width="1" opacity="0.984313725490196" d="M 101.5 424 L 104 425.5 L 102.5 425 L 101.5 424 Z " /><path fill="rgb(8,50,168)" stroke="rgb(8,50,168)" stroke-width="1" opacity="0.39215686274509803" d="M 189.5 39 L 192 40.5 L 190.5 40 L 189.5 39 Z " /><path fill="rgb(8,50,168)" stroke="rgb(8,50,168)" stroke-width="1" opacity="0.39215686274509803" d="M 197.5 43 L 201 45.5 L 199.5 45 L 197.5 43 Z " /><path fill="rgb(8,50,168)" stroke="rgb(8,50,168)" stroke-width="1" opacity="0.39215686274509803" d="M 212.5 51 L 216 53.5 L 214.5 53 L 212.5 51 Z " /><path fill="rgb(8,50,168)" stroke="rgb(8,50,168)" stroke-width="1" opacity="0.39215686274509803" d="M 157.5 52 L 156.5 54 L 152.5 56 L 153.5 54 L 157.5 52 Z " /><path fill="rgb(8,50,168)" stroke="rgb(8,50,168)" stroke-width="1" opacity="0.39215686274509803" d="M 223.5 57 L 227 59.5 L 225.5 59 L 223.5 57 Z " /><path fill="rgb(8,50,168)" stroke="rgb(8,50,168)" stroke-width="1" opacity="0.39215686274509803" d="M 234.5 63 L 240 66.5 L 238.5 66 Q 234.5 65.5 234.5 63 Z " /><path fill="rgb(8,50,168)" stroke="rgb(8,50,168)" stroke-width="1" opacity="0.39215686274509803" d="M 128.5 67 L 127.5 69 L 125.5 70 L 126.5 68 L 128.5 67 Z " /><path fill="rgb(8,50,168)" stroke="rgb(8,50,168)" stroke-width="1" opacity="0.39215686274509803" d="M 243.5 68 L 247 70.5 L 245.5 70 L 243.5 68 Z " /><path fill="rgb(8,50,168)" stroke="rgb(8,50,168)" stroke-width="1" opacity="0.39215686274509803" d="M 122.5 70 L 124 70.5 L 121.5 72 L 122.5 70 Z " /><path fill="rgb(8,50,168)" stroke="rgb(8,50,168)" stroke-width="1" opacity="0.39215686274509803" d="M 254.5 74 L 260 77.5 L 258.5 77 Q 254.5 76.5 254.5 74 Z " /><path fill="rgb(8,50,168)" stroke="rgb(8,50,168)" stroke-width="1" opacity="0.39215686274509803" d="M 263.5 79 L 271 83.5 L 269.5 83 Q 263.9 82.2 263.5 79 Z " /><path fill="rgb(8,50,168)" stroke="rgb(8,50,168)" stroke-width="1" opacity="0.39215686274509803" d="M 99.5 82 L 98.5 84 L 96.5 85 L 97.5 83 L 99.5 82 Z " /><path fill="rgb(8,50,168)" stroke="rgb(8,50,168)" stroke-width="1" opacity="0.39215686274509803" d="M 274.5 85 L 280 88.5 L 278.5 88 Q 274.5 87.5 274.5 85 Z " /><path fill="rgb(8,50,168)" stroke="rgb(8,50,168)" stroke-width="1" opacity="0.39215686274509803" d="M 285.5 91 L 286.5 93 L 285.5 91 Z " /><path fill="rgb(8,50,168)" stroke="rgb(8,50,168)" stroke-width="1" opacity="0.39215686274509803" d="M 80.5 92 L 79.5 94 L 77.5 95 L 78.5 93 L 80.5 92 Z " /><path fill="rgb(8,50,168)" stroke="rgb(8,50,168)" stroke-width="1" opacity="0.39215686274509803" d="M 298.5 98 L 302 100.5 L 300.5 100 L 298.5 98 Z " /><path fill="rgb(8,50,168)" stroke="rgb(8,50,168)" stroke-width="1" opacity="0.39215686274509803" d="M 61.5 102 L 60.5 104 L 61.5 102 Z " /><path fill="rgb(8,50,168)" stroke="rgb(8,50,168)" stroke-width="1" opacity="0.39215686274509803" d="M 307.5 103 L 311 105.5 L 309.5 105 L 307.5 103 Z " /><path fill="rgb(8,50,168)" stroke="rgb(8,50,168)" stroke-width="1" opacity="0.39215686274509803" d="M 57.5 104 L 59 104.5 L 56.5 106 L 57.5 104 Z " /><path fill="rgb(8,50,168)" stroke="rgb(8,50,168)" stroke-width="1" opacity="0.39215686274509803" d="M 320.5 110 L 326 113.5 L 324.5 113 Q 320.5 112.5 320.5 110 Z " /><path fill="rgb(8,50,168)" stroke="rgb(8,50,168)" stroke-width="1" opacity="0.39215686274509803" d="M 42.5 112 L 41.5 114 L 39.5 115 L 40.5 113 L 42.5 112 Z " /><path fill="rgb(8,50,168)" stroke="rgb(8,50,168)" stroke-width="1" opacity="0.39215686274509803" d="M 329.5 115 L 330 260.5 L 253.5 302 L 226.5 315 L 217.5 321 L 178.5 340 L 177 338.5 L 177 260.5 L 181.5 257 L 180.5 259 L 178 260.5 L 178.5 339 L 311.5 270 L 329 259.5 L 329.5 115 Z " /><path fill="rgb(8,50,168)" stroke="rgb(8,50,168)" stroke-width="1" opacity="0.39215686274509803" d="M 33.5 117 L 32.5 119 L 33.5 117 Z " /><path fill="rgb(8,50,168)" stroke="rgb(8,50,168)" stroke-width="1" opacity="0.39215686274509803" d="M 185.5 117 L 240 146.5 L 238.5 146 L 228.5 142 L 223.5 138 L 186.5 118 L 107.5 159 L 107 157 L 185.5 117 Z " /><path fill="rgb(8,50,168)" stroke="rgb(8,50,168)" stroke-width="1" opacity="0.39215686274509803" d="M 241.5 147 L 257 155 L 256.5 157 L 243.5 150 L 241.5 147 Z " /><path fill="rgb(8,50,168)" stroke="rgb(8,50,168)" stroke-width="1" opacity="0.39215686274509803" d="M 256.5 158 L 257 216.5 L 256 216.5 L 256.5 158 Z " /><path fill="rgb(8,50,168)" stroke="rgb(8,50,168)" stroke-width="1" opacity="0.39215686274509803" d="M 143.5 177 L 144.5 179 L 143.5 177 Z " /><path fill="rgb(8,50,168)" stroke="rgb(8,50,168)" stroke-width="1" opacity="0.39215686274509803" d="M 256.5 218 L 255.5 220 L 256.5 218 Z " /><path fill="rgb(8,50,168)" stroke="rgb(8,50,168)" stroke-width="1" opacity="0.39215686274509803" d="M 239.5 227 L 238.5 229 L 236.5 230 L 237.5 228 L 239.5 227 Z " /><path fill="rgb(8,50,168)" stroke="rgb(8,50,168)" stroke-width="1" opacity="0.39215686274509803" d="M 233.5 230 L 235 230.5 L 232.5 232 L 233.5 230 Z " /><path fill="rgb(8,50,168)" stroke="rgb(8,50,168)" stroke-width="1" opacity="0.39215686274509803" d="M 210.5 242 L 209.5 244 L 205.5 246 L 206.5 244 L 210.5 242 Z " /><path fill="rgb(8,50,168)" stroke="rgb(8,50,168)" stroke-width="1" opacity="0.39215686274509803" d="M 32.5 271 L 33 272.5 L 31 273.5 L 32.5 271 Z " /><path fill="rgb(8,50,168)" stroke="rgb(8,50,168)" stroke-width="1" opacity="0.39215686274509803" d="M 32.5 277 L 33 286.5 L 32 286.5 L 32.5 277 Z " /><path fill="rgb(8,50,168)" stroke="rgb(8,50,168)" stroke-width="1" opacity="0.39215686274509803" d="M 32.5 311 L 33 317.5 L 32 317.5 L 32.5 311 Z " /><path fill="rgb(8,50,168)" stroke="rgb(8,50,168)" stroke-width="1" opacity="0.39215686274509803" d="M 104.5 312 L 105 317.5 L 104 317.5 L 104.5 312 Z " /><path fill="rgb(8,50,168)" stroke="rgb(8,50,168)" stroke-width="1" opacity="0.39215686274509803" d="M 111.5 313 L 119 317.5 L 117.5 318 Q 112.3 316.2 111.5 313 Z " /><path fill="rgb(8,50,168)" stroke="rgb(8,50,168)" stroke-width="1" opacity="0.39215686274509803" d="M 120.5 318 L 134 325.5 L 132.5 325 L 121.5 320 L 120.5 318 Z " /><path fill="rgb(8,50,168)" stroke="rgb(8,50,168)" stroke-width="1" opacity="0.39215686274509803" d="M 32.5 319 L 33 324.5 L 32 324.5 L 32.5 319 Z " /><path fill="rgb(8,50,168)" stroke="rgb(8,50,168)" stroke-width="1" opacity="0.39215686274509803" d="M 104.5 326 L 105 330.5 L 104 330.5 L 104.5 326 Z " /><path fill="rgb(8,50,168)" stroke="rgb(8,50,168)" stroke-width="1" opacity="0.39215686274509803" d="M 32.5 327 L 33 330.5 L 32 330.5 L 32.5 327 Z " /><path fill="rgb(8,50,168)" stroke="rgb(8,50,168)" stroke-width="1" opacity="0.39215686274509803" d="M 137.5 327 L 149 333.5 L 147.5 334 L 138.5 329 L 137.5 327 Z " /><path fill="rgb(8,50,168)" stroke="rgb(8,50,168)" stroke-width="1" opacity="0.39215686274509803" d="M 158.5 338 L 168 342.5 L 165.5 343 Q 159.3 341.6 158.5 338 Z " /><path fill="rgb(8,50,168)" stroke="rgb(8,50,168)" stroke-width="1" opacity="0.39215686274509803" d="M 104.5 350 L 105 354.5 L 104 354.5 L 104.5 350 Z " /><path fill="rgb(8,50,168)" stroke="rgb(8,50,168)" stroke-width="1" opacity="0.39215686274509803" d="M 32.5 393 L 57 406.5 L 55.5 406 L 44.5 402 L 41.5 399 L 32 395 L 32.5 393 Z " /><path fill="rgb(8,50,168)" stroke="rgb(8,50,168)" stroke-width="1" opacity="0.39215686274509803" d="M 60.5 408 L 78 417.5 L 76.5 418 L 61.5 410 L 60.5 408 Z " /><path fill="rgb(8,50,168)" stroke="rgb(8,50,168)" stroke-width="1" opacity="0.39215686274509803" d="M 104.5 409 L 105 415.5 L 104 415.5 L 104.5 409 Z " /><path fill="rgb(8,50,168)" stroke="rgb(8,50,168)" stroke-width="1" opacity="0.39215686274509803" d="M 81.5 419 L 97 427.5 L 95.5 428 L 82.5 421 L 81.5 419 Z " /><path fill="rgb(8,50,168)" stroke="rgb(8,50,168)" stroke-width="1" opacity="0.39215686274509803" d="M 104.5 425 L 105 432 L 102.5 432 L 98 428.5 L 99.5 429 L 103.5 431 L 104.5 425 Z " /><path fill="rgb(0,0,0)" stroke="rgb(0,0,0)" stroke-width="1" opacity="0" d="M 0 0 L 360 0 L 360 467 L 0 467 L 0 0 Z M 186 38 L 34 117 L 32 119 L 32 273 L 31 274 L 32 275 L 32 395 L 42 399 L 45 402 L 60 408 L 70 415 L 81 419 L 103 432 L 105 432 L 105 311 L 166 343 L 168 343 L 168 190 L 108 159 L 187 118 L 256 156 Q 258 157 256 159 L 256 217 L 257 218 L 236 230 L 180 258 L 177 261 L 177 339 L 179 340 L 218 321 L 227 315 L 329 262 L 330 261 L 330 115 L 288 93 L 191 39 L 186 38 Z " /><path fill="rgb(0,65,232)" stroke="rgb(0,65,232)" stroke-width="1" opacity="0.9607843137254902" d="M 178.5 42 L 177.5 44 L 176 44.5 L 176.5 46 L 174.5 45 L 166.5 49 L 166.5 48 L 178.5 42 Z " /><path fill="rgb(0,65,232)" stroke="rgb(0,65,232)" stroke-width="1" opacity="0.9607843137254902" d="M 194.5 42 L 198 44.5 L 196.5 44 L 194.5 42 Z " /><path fill="rgb(0,65,232)" stroke="rgb(0,65,232)" stroke-width="1" opacity="0.9607843137254902" d="M 162.5 50 L 161.5 52 L 157.5 54 L 158.5 52 L 162.5 50 Z " /><path fill="rgb(0,65,232)" stroke="rgb(0,65,232)" stroke-width="1" opacity="0.9607843137254902" d="M 209.5 50 L 213 52.5 L 211.5 52 L 209.5 50 Z " /><path fill="rgb(0,65,232)" stroke="rgb(0,65,232)" stroke-width="1" opacity="0.9607843137254902" d="M 222.5 57 L 223.5 59 L 222.5 57 Z " /><path fill="rgb(0,65,232)" stroke="rgb(0,65,232)" stroke-width="1" opacity="0.9607843137254902" d="M 145.5 59 L 144.5 61 L 141.5 62 L 141.5 61 L 145.5 59 Z " /><path fill="rgb(0,65,232)" stroke="rgb(0,65,232)" stroke-width="1" opacity="0.9607843137254902" d="M 229.5 61 L 235 64.5 L 233.5 64 Q 229.5 63.5 229.5 61 Z " /><path fill="rgb(0,65,232)" stroke="rgb(0,65,232)" stroke-width="1" opacity="0.9607843137254902" d="M 135.5 64 L 134.5 66 L 133 65.5 L 135.5 64 Z " /><path fill="rgb(0,65,232)" stroke="rgb(0,65,232)" stroke-width="1" opacity="0.9607843137254902" d="M 131.5 66 L 130.5 68 L 128.5 69 L 129.5 67 L 131.5 66 Z " /><path fill="rgb(0,65,232)" stroke="rgb(0,65,232)" stroke-width="1" opacity="0.9607843137254902" d="M 240.5 67 L 244 69.5 L 242.5 69 L 240.5 67 Z " /><path fill="rgb(0,65,232)" stroke="rgb(0,65,232)" stroke-width="1" opacity="0.9607843137254902" d="M 253.5 74 L 254.5 76 L 253.5 74 Z " /><path fill="rgb(0,65,232)" stroke="rgb(0,65,232)" stroke-width="1" opacity="0.9607843137254902" d="M 114.5 75 L 113.5 77 L 99.5 84 L 100.5 82 L 114.5 75 Z " /><path fill="rgb(0,65,232)" stroke="rgb(0,65,232)" stroke-width="1" opacity="0.9607843137254902" d="M 260.5 78 L 266 81.5 L 264.5 82 L 260.5 78 Z " /><path fill="rgb(0,65,232)" stroke="rgb(0,65,232)" stroke-width="1" opacity="0.9607843137254902" d="M 273.5 85 L 274.5 87 L 273.5 85 Z " /><path fill="rgb(0,65,232)" stroke="rgb(0,65,232)" stroke-width="1" opacity="0.9607843137254902" d="M 89.5 88 L 88.5 90 L 80.5 94 L 81.5 92 L 89.5 88 Z " /><path fill="rgb(0,65,232)" stroke="rgb(0,65,232)" stroke-width="1" opacity="0.9607843137254902" d="M 282.5 90 L 286 92.5 L 284.5 92 L 282.5 90 Z " /><path fill="rgb(0,65,232)" stroke="rgb(0,65,232)" stroke-width="1" opacity="0.9607843137254902" d="M 297.5 98 L 298.5 100 L 297.5 98 Z " /><path fill="rgb(0,65,232)" stroke="rgb(0,65,232)" stroke-width="1" opacity="0.9607843137254902" d="M 66.5 100 L 65.5 102 L 61.5 104 L 62.5 102 L 66.5 100 Z " /><path fill="rgb(0,65,232)" stroke="rgb(0,65,232)" stroke-width="1" opacity="0.9607843137254902" d="M 304.5 102 L 308 104.5 L 306.5 104 L 304.5 102 Z " /><path fill="rgb(0,65,232)" stroke="rgb(0,65,232)" stroke-width="1" opacity="0.9607843137254902" d="M 317.5 109 L 321 111.5 L 319.5 111 L 317.5 109 Z " /><path fill="rgb(0,65,232)" stroke="rgb(0,65,232)" stroke-width="1" opacity="0.9607843137254902" d="M 45.5 111 L 44.5 113 L 42.5 114 L 43.5 112 L 45.5 111 Z " /><path fill="rgb(0,65,232)" stroke="rgb(0,65,232)" stroke-width="1" opacity="0.9607843137254902" d="M 40.5 114 L 39.5 116 L 33.5 119 L 34.5 117 L 40.5 114 Z " /><path fill="rgb(0,65,232)" stroke="rgb(0,65,232)" stroke-width="1" opacity="0.9607843137254902" d="M 328.5 115 L 329 259.5 L 327 260.5 L 328 259.5 L 328.5 115 Z " /><path fill="rgb(0,65,232)" stroke="rgb(0,65,232)" stroke-width="1" opacity="0.9607843137254902" d="M 188.5 117 L 194 120.5 L 192.5 120 Q 188.5 119.5 188.5 117 Z " /><path fill="rgb(0,65,232)" stroke="rgb(0,65,232)" stroke-width="1" opacity="0.9607843137254902" d="M 199.5 123 L 200.5 125 L 199.5 123 Z " /><path fill="rgb(0,65,232)" stroke="rgb(0,65,232)" stroke-width="1" opacity="0.9607843137254902" d="M 206.5 127 L 209 128.5 L 207.5 128 L 206.5 127 Z " /><path fill="rgb(0,65,232)" stroke="rgb(0,65,232)" stroke-width="1" opacity="0.9607843137254902" d="M 210.5 129 L 211.5 131 L 210.5 129 Z " /><path fill="rgb(0,65,232)" stroke="rgb(0,65,232)" stroke-width="1" opacity="0.9607843137254902" d="M 158.5 130 L 157.5 132 L 153.5 134 L 154.5 132 L 158.5 130 Z " /><path fill="rgb(0,65,232)" stroke="rgb(0,65,232)" stroke-width="1" opacity="0.9607843137254902" d="M 217.5 133 L 223 136.5 L 221.5 136 Q 217.5 135.5 217.5 133 Z " /><path fill="rgb(0,65,232)" stroke="rgb(0,65,232)" stroke-width="1" opacity="0.9607843137254902" d="M 226.5 138 L 230 140.5 L 228.5 140 L 226.5 138 Z " /><path fill="rgb(0,65,232)" stroke="rgb(0,65,232)" stroke-width="1" opacity="0.9607843137254902" d="M 239.5 145 L 243 147.5 L 241.5 147 L 239.5 145 Z " /><path fill="rgb(0,65,232)" stroke="rgb(0,65,232)" stroke-width="1" opacity="0.9607843137254902" d="M 123.5 148 L 122.5 150 L 123.5 148 Z " /><path fill="rgb(0,65,232)" stroke="rgb(0,65,232)" stroke-width="1" opacity="0.9607843137254902" d="M 246.5 149 L 247.5 151 L 246.5 149 Z " /><path fill="rgb(0,65,232)" stroke="rgb(0,65,232)" stroke-width="1" opacity="0.9607843137254902" d="M 119.5 150 L 121 150.5 L 114.5 154 L 115.5 152 L 119.5 150 Z " /><path fill="rgb(0,65,232)" stroke="rgb(0,65,232)" stroke-width="1" opacity="0.9607843137254902" d="M 111.5 154 L 113 154.5 L 110.5 156 L 111.5 154 Z " /><path fill="rgb(0,65,232)" stroke="rgb(0,65,232)" stroke-width="1" opacity="0.9607843137254902" d="M 257.5 155 L 258 218.5 L 254.5 221 L 254.5 220 L 257 218.5 L 257.5 155 Z " /><path fill="rgb(0,65,232)" stroke="rgb(0,65,232)" stroke-width="1" opacity="0.9607843137254902" d="M 129.5 217 L 131 217.5 L 128.5 219 L 129.5 217 Z " /><path fill="rgb(0,65,232)" stroke="rgb(0,65,232)" stroke-width="1" opacity="0.9607843137254902" d="M 244.5 225 L 243.5 227 L 239.5 229 L 240.5 227 L 244.5 225 Z " /><path fill="rgb(0,65,232)" stroke="rgb(0,65,232)" stroke-width="1" opacity="0.9607843137254902" d="M 225.5 235 L 224.5 237 L 210.5 244 L 211.5 242 L 225.5 235 Z " /><path fill="rgb(0,65,232)" stroke="rgb(0,65,232)" stroke-width="1" opacity="0.9607843137254902" d="M 129 251 L 131 251.5 L 130.5 254 L 129 251 Z " /><path fill="rgb(0,65,232)" stroke="rgb(0,65,232)" stroke-width="1" opacity="0.9607843137254902" d="M 190.5 253 L 189.5 255 L 181.5 259 L 182.5 257 L 190.5 253 Z " /><path fill="rgb(0,65,232)" stroke="rgb(0,65,232)" stroke-width="1" opacity="0.9607843137254902" d="M 179.5 259 L 179 260.5 L 178.5 339 L 178 260.5 L 179.5 259 Z " /><path fill="rgb(0,65,232)" stroke="rgb(0,65,232)" stroke-width="1" opacity="0.9607843137254902" d="M 321.5 263 L 320.5 265 L 318.5 266 L 319.5 264 L 321.5 263 Z " /><path fill="rgb(0,65,232)" stroke="rgb(0,65,232)" stroke-width="1" opacity="0.9607843137254902" d="M 312.5 268 L 311.5 270 L 305.5 273 L 306.5 271 L 312.5 268 Z " /><path fill="rgb(0,65,232)" stroke="rgb(0,65,232)" stroke-width="1" opacity="0.9607843137254902" d="M 33.5 272 L 33 273.5 L 32.5 277 L 32 273.5 L 33.5 272 Z " /><path fill="rgb(0,65,232)" stroke="rgb(0,65,232)" stroke-width="1" opacity="0.9607843137254902" d="M 135.5 279 L 136 283.5 Q 135.3 286.8 130.5 286 L 130.5 285 L 135 284 L 134 280.5 L 135.5 279 Z " /><path fill="rgb(0,65,232)" stroke="rgb(0,65,232)" stroke-width="1" opacity="0.9607843137254902" d="M 291.5 279 L 290.5 281 L 286.5 283 L 287.5 281 L 291.5 279 Z " /><path fill="rgb(0,65,232)" stroke="rgb(0,65,232)" stroke-width="1" opacity="0.9607843137254902" d="M 32.5 287 L 33 307.5 L 32 307.5 L 32.5 287 Z " /><path fill="rgb(0,65,232)" stroke="rgb(0,65,232)" stroke-width="1" opacity="0.9607843137254902" d="M 274.5 288 L 273.5 290 L 269.5 292 L 270.5 290 L 274.5 288 Z " /><path fill="rgb(0,65,232)" stroke="rgb(0,65,232)" stroke-width="1" opacity="0.9607843137254902" d="M 255.5 298 L 254.5 300 L 255.5 298 Z " /><path fill="rgb(0,65,232)" stroke="rgb(0,65,232)" stroke-width="1" opacity="0.9607843137254902" d="M 234.5 309 L 233.5 311 L 234.5 309 Z " /><path fill="rgb(0,65,232)" stroke="rgb(0,65,232)" stroke-width="1" opacity="0.9607843137254902" d="M 104.5 318 L 105 325.5 L 104 325.5 L 104.5 318 Z " /><path fill="rgb(0,65,232)" stroke="rgb(0,65,232)" stroke-width="1" opacity="0.9607843137254902" d="M 207.5 323 L 206.5 325 L 204.5 326 L 205.5 324 L 207.5 323 Z " /><path fill="rgb(0,65,232)" stroke="rgb(0,65,232)" stroke-width="1" opacity="0.9607843137254902" d="M 32.5 334 L 33 382.5 L 32 382.5 L 32.5 334 Z " /><path fill="rgb(0,65,232)" stroke="rgb(0,65,232)" stroke-width="1" opacity="0.9607843137254902" d="M 104.5 334 L 105 346.5 L 104 346.5 L 104.5 334 Z " /><path fill="rgb(0,65,232)" stroke="rgb(0,65,232)" stroke-width="1" opacity="0.9607843137254902" d="M 104.5 355 L 105 408.5 L 104 408.5 L 104.5 355 Z " /><path fill="rgb(0,65,232)" stroke="rgb(0,65,232)" stroke-width="1" opacity="0.9607843137254902" d="M 32.5 384 L 33 392.5 L 34 393.5 L 32 392.5 L 32.5 384 Z " /><path fill="rgb(0,65,232)" stroke="rgb(0,65,232)" stroke-width="1" opacity="0.9607843137254902" d="M 35.5 394 L 40 396.5 L 38.5 397 L 35.5 394 Z " /><path fill="rgb(0,65,232)" stroke="rgb(0,65,232)" stroke-width="1" opacity="0.9607843137254902" d="M 41.5 397 L 42.5 399 L 41.5 397 Z " /><path fill="rgb(0,65,232)" stroke="rgb(0,65,232)" stroke-width="1" opacity="0.9607843137254902" d="M 56.5 405 L 62 408.5 L 60.5 408 Q 56.5 407.5 56.5 405 Z " /><path fill="rgb(0,65,232)" stroke="rgb(0,65,232)" stroke-width="1" opacity="0.9607843137254902" d="M 71.5 413 L 74 414.5 L 72.5 415 L 71.5 413 Z " /><path fill="rgb(0,65,232)" stroke="rgb(0,65,232)" stroke-width="1" opacity="0.9607843137254902" d="M 75.5 415 L 83 419.5 L 81.5 419 Q 75.9 418.2 75.5 415 Z " /><path fill="rgb(0,65,232)" stroke="rgb(0,65,232)" stroke-width="1" opacity="0.9607843137254902" d="M 104.5 416 L 105 424.5 L 104 424.5 L 104.5 416 Z " /><path fill="rgb(0,65,232)" stroke="rgb(0,65,232)" stroke-width="1" opacity="0.9607843137254902" d="M 90.5 423 L 91.5 425 L 90.5 423 Z " /><path fill="rgb(0,65,232)" stroke="rgb(0,65,232)" stroke-width="1" opacity="0.9607843137254902" d="M 97.5 427 L 102.5 429 L 104 428.5 L 103.5 431 L 97.5 428 L 97.5 427 Z " /><path fill="rgb(252,252,253)" stroke="rgb(252,252,253)" stroke-width="1" opacity="0.996078431372549" d="M 33 120 L 44.5 125 L 167 191.5 L 167 340.5 L 164.5 341 L 33 270.5 L 33 120 Z M 59 169 L 59 183 L 139 225 L 141 225 L 141 213 L 79 178 L 62 169 L 59 169 Z M 59 203 L 59 216 L 139 259 L 141 259 L 141 247 L 78 211 L 59 203 Z M 61 236 L 59 238 L 59 250 L 140 293 L 141 293 L 141 279 L 61 236 Z " /><path fill="rgb(211,222,241)" stroke="rgb(211,222,241)" stroke-width="1" opacity="0.8509803921568627" d="M 32 119 L 34 119.5 L 33 120.5 L 33 270.5 L 33.5 272 L 32 270.5 L 32 119 Z " /><path fill="rgb(211,222,241)" stroke="rgb(211,222,241)" stroke-width="1" opacity="0.8509803921568627" d="M 80.5 144 L 81.5 146 L 80.5 144 Z " /><path fill="rgb(211,222,241)" stroke="rgb(211,222,241)" stroke-width="1" opacity="0.8509803921568627" d="M 91.5 150 L 92.5 152 L 91.5 150 Z " /><path fill="rgb(211,222,241)" stroke="rgb(211,222,241)" stroke-width="1" opacity="0.8509803921568627" d="M 104.5 157 L 114 162.5 L 112.5 162 L 105.5 159 L 104.5 157 Z " /><path fill="rgb(211,222,241)" stroke="rgb(211,222,241)" stroke-width="1" opacity="0.8509803921568627" d="M 119.5 165 L 129 170.5 L 127.5 170 L 120.5 167 L 119.5 165 Z " /><path fill="rgb(211,222,241)" stroke="rgb(211,222,241)" stroke-width="1" opacity="0.8509803921568627" d="M 59 169 L 62 169.5 L 60 170 L 59.5 183 L 59 169 Z " /><path fill="rgb(211,222,241)" stroke="rgb(211,222,241)" stroke-width="1" opacity="0.8509803921568627" d="M 130.5 171 L 144 178.5 L 142.5 178 L 131.5 173 L 130.5 171 Z " /><path fill="rgb(211,222,241)" stroke="rgb(211,222,241)" stroke-width="1" opacity="0.8509803921568627" d="M 149.5 181 L 159 186.5 L 157.5 186 L 150.5 183 L 149.5 181 Z " /><path fill="rgb(211,222,241)" stroke="rgb(211,222,241)" stroke-width="1" opacity="0.8509803921568627" d="M 166.5 190 L 168 191.5 L 168 342 L 165 341.5 L 167 341 L 167 191.5 L 166.5 190 Z " /><path fill="rgb(211,222,241)" stroke="rgb(211,222,241)" stroke-width="1" opacity="0.8509803921568627" d="M 93.5 200 L 94.5 202 L 93.5 200 Z " /><path fill="rgb(211,222,241)" stroke="rgb(211,222,241)" stroke-width="1" opacity="0.8509803921568627" d="M 119.5 200 L 120.5 202 L 119.5 200 Z " /><path fill="rgb(211,222,241)" stroke="rgb(211,222,241)" stroke-width="1" opacity="0.8509803921568627" d="M 59.5 203 L 60 215.5 L 61 216.5 L 59 215.5 L 59.5 203 Z " /><path fill="rgb(211,222,241)" stroke="rgb(211,222,241)" stroke-width="1" opacity="0.8509803921568627" d="M 106.5 207 L 107.5 209 L 106.5 207 Z " /><path fill="rgb(211,222,241)" stroke="rgb(211,222,241)" stroke-width="1" opacity="0.8509803921568627" d="M 77.5 211 L 78.5 213 L 77.5 211 Z " /><path fill="rgb(211,222,241)" stroke="rgb(211,222,241)" stroke-width="1" opacity="0.8509803921568627" d="M 139.5 211 L 141 212.5 L 141 224.5 L 140 224.5 L 140 212.5 L 139.5 211 Z " /><path fill="rgb(211,222,241)" stroke="rgb(211,222,241)" stroke-width="1" opacity="0.8509803921568627" d="M 81.5 227 L 82.5 229 L 81.5 227 Z " /><path fill="rgb(211,222,241)" stroke="rgb(211,222,241)" stroke-width="1" opacity="0.8509803921568627" d="M 60.5 236 L 60 237.5 L 60 249.5 L 61 250.5 L 59 249.5 L 59 237.5 L 60.5 236 Z " /><path fill="rgb(211,222,241)" stroke="rgb(211,222,241)" stroke-width="1" opacity="0.8509803921568627" d="M 103.5 239 L 107 241.5 L 105.5 241 L 103.5 239 Z " /><path fill="rgb(211,222,241)" stroke="rgb(211,222,241)" stroke-width="1" opacity="0.8509803921568627" d="M 139.5 245 L 141 246.5 L 141 258.5 L 140 258.5 L 140 246.5 L 139.5 245 Z " /><path fill="rgb(211,222,241)" stroke="rgb(211,222,241)" stroke-width="1" opacity="0.8509803921568627" d="M 127.5 252 L 128.5 254 L 127.5 252 Z " /><path fill="rgb(211,222,241)" stroke="rgb(211,222,241)" stroke-width="1" opacity="0.8509803921568627" d="M 78.5 259 L 79.5 261 L 78.5 259 Z " /><path fill="rgb(211,222,241)" stroke="rgb(211,222,241)" stroke-width="1" opacity="0.8509803921568627" d="M 91.5 266 L 92.5 268 L 91.5 266 Z " /><path fill="rgb(211,222,241)" stroke="rgb(211,222,241)" stroke-width="1" opacity="0.8509803921568627" d="M 104.5 273 L 105.5 275 L 104.5 273 Z " /><path fill="rgb(211,222,241)" stroke="rgb(211,222,241)" stroke-width="1" opacity="0.8509803921568627" d="M 140.5 279 L 141 293 L 139 292.5 L 140 291.5 L 140.5 279 Z " /><path fill="rgb(211,222,241)" stroke="rgb(211,222,241)" stroke-width="1" opacity="0.8509803921568627" d="M 119.5 281 L 120.5 283 L 119.5 281 Z " /><path fill="rgb(211,222,241)" stroke="rgb(211,222,241)" stroke-width="1" opacity="0.8509803921568627" d="M 126.5 285 L 130 287.5 L 128.5 287 L 126.5 285 Z " /><path fill="rgb(211,222,241)" stroke="rgb(211,222,241)" stroke-width="1" opacity="0.8509803921568627" d="M 105.5 309 L 113 313.5 L 111.5 313 Q 105.9 312.2 105.5 309 Z " /><path fill="rgb(211,222,241)" stroke="rgb(211,222,241)" stroke-width="1" opacity="0.8509803921568627" d="M 116.5 315 L 130 322.5 L 128.5 322 L 120.5 318 L 119 318.5 Q 119.8 316.3 117.5 317 L 116.5 315 Z " /><path fill="rgb(211,222,241)" stroke="rgb(211,222,241)" stroke-width="1" opacity="0.8509803921568627" d="M 133.5 324 L 141 328.5 L 139.5 328 Q 133.9 327.2 133.5 324 Z " /><path fill="rgb(211,222,241)" stroke="rgb(211,222,241)" stroke-width="1" opacity="0.8509803921568627" d="M 146.5 331 L 162 339.5 L 160.5 339 L 147.5 333 L 146.5 331 Z " /><path fill="rgb(0,65,251)" stroke="rgb(0,65,251)" stroke-width="1" opacity="1" d="M 186.5 40 L 194 43.5 L 195 48 L 200.5 47 L 204 48 Q 202.5 51.7 205.5 51 L 207.5 50 L 207.5 52 L 209.5 53 L 211.5 53 L 220 57.5 Q 219.2 60.1 222.5 59 L 226 60.5 L 222 62.5 L 225.5 63 Q 227 59.5 228.5 62 L 238 67.5 L 238 69 Q 241.8 67.5 241 70.5 L 242.5 70 L 249 73.5 L 248 76.5 L 249.5 77 L 251 76.5 L 252.5 79 L 254.5 76 L 257.5 79 L 268 83 L 268.5 85 L 270 84.5 L 269 86.5 L 270.5 87 L 272.5 86 L 281 91.5 L 279 94.5 L 284.5 97 L 284.5 95 L 286.5 95 L 288.5 96 L 290 95.5 L 290.5 99 L 291.5 96 L 293 99.5 L 290 100.5 L 293.5 101 L 296.5 100 L 299 100.5 L 297.5 103 L 300.5 101 L 300.5 103 L 306 104 L 306.5 106 L 308.5 106 Q 311.1 105.3 310 108 L 313.5 108 L 316 109.5 Q 313.8 110.8 316.5 112 L 317.5 110 L 318 112 Q 321.8 111.3 323 114.5 L 322.5 116 Q 324.8 116.8 324 114.5 L 325 114.5 L 326.5 117 L 328 116.5 L 328 120.5 L 328 256.5 L 327 257.5 L 327 259.5 Q 327.8 262.1 324.5 261 Q 323 263.5 321.5 260 L 320 261.5 L 319.5 264 L 317.5 263 L 315 264 L 315.5 266 L 317.5 265 L 317.5 266 L 315.5 267 L 313.5 266 L 313.5 268 Q 307.3 268.8 304.5 273 L 306 270.5 L 305.5 269 L 300 272.5 L 303 273.5 L 296.5 277 Q 295 274.5 293.5 278 L 291.5 279 L 288.5 277 L 287 279.5 Q 289.8 281.2 285.5 283 L 283.5 282 L 283.5 284 L 281.5 283 L 281.5 285 L 280 284.5 Q 280.8 286.8 278.5 286 L 256.5 298 L 255 297.5 L 253.5 300 Q 249 299 248 301.5 Q 248.8 303.8 246.5 303 L 242.5 305 Q 241.3 302.8 240 305.5 Q 240.8 308.1 237.5 307 L 228.5 313 L 227 312.5 L 226.5 314 L 225 313.5 Q 225.8 315.8 223.5 315 L 222 314.5 Q 222.8 316.8 220.5 316 L 219 316.5 L 220 314.5 L 218 315.5 L 216.5 319 L 212.5 321 L 211.5 320 L 208.5 323 L 203.5 326 L 201 324.5 L 202 326.5 L 200 326.5 Q 200.8 328.8 198.5 328 L 197 328.5 Q 196.3 326.3 198.5 327 L 198.5 326 L 195.5 325 L 191 327.5 L 190 329.5 L 194 330.5 L 190 331 Q 191.1 333.7 188.5 333 L 181.5 337 L 181.5 335 Q 178.9 334.2 180 337.5 L 179 337.5 L 179 260.5 L 180.5 260 L 182.5 260 L 187 257.5 L 188.5 255 L 196.5 251 L 203 250 L 204.5 247 L 212.5 243 L 214 243.5 Q 213.3 241.3 215.5 242 L 228.5 235 L 232 236 L 232 234 Q 234.7 235.1 234 232.5 L 258 219.5 L 258 155.5 L 256.5 155 L 242 146.5 L 243.5 147 L 245.5 148 L 247 146.5 L 243.5 143 L 240 144.5 L 240.5 146 L 187 116.5 L 188 114 Q 182.5 112.8 181 116.5 L 181.5 118 L 185.5 116 L 185.5 117 L 107.5 157 L 104.5 157 L 99 153.5 Q 99.8 151.3 97.5 152 L 95 150.5 L 98 149.5 L 90.5 148 L 89 148.5 Q 89.8 145.9 86.5 147 Q 84.6 143.4 80 144 L 78.5 141 L 62 134 Q 63.1 131.3 60.5 132 L 43 124 L 42.5 122 L 40.5 122 L 35 119.5 Q 37 115.8 39 117.5 Q 38.3 115.3 40.5 116 L 50.5 110 L 52.5 111 L 52.5 109 L 67.5 101 L 70.5 102 L 70.5 101 L 69 100.5 L 73.5 98 L 73.5 99 L 72 99.5 L 77.5 101 L 76.5 99 L 75 99.5 L 76 96 L 78.5 96 L 86.5 91 L 87.5 94 L 89.5 89 L 93.5 87 L 95 87.5 Q 94.3 85.3 96.5 86 L 99 85.5 L 99.5 84 L 102 85.5 L 101 83.5 Q 103.2 85.2 105.5 81 L 110 80 L 110.5 78 L 114 78.5 L 115.5 76 L 121 75 L 122.5 72 L 126.5 70 L 128.5 71 L 128.5 69 L 130.5 68 L 131 70 L 133 69.5 L 132 68.5 L 135.5 65 L 139.5 63 L 141 63.5 Q 140.3 61.3 142.5 62 L 144 62.5 L 144.5 61 L 146 61.5 L 147.5 59 L 148 61 L 150 60.5 L 149.5 59 L 160 58 L 161 55.5 L 160 53.5 L 162.5 55 L 163.5 54 L 165 53.5 L 162 52.5 L 164.5 50 L 175.5 48 L 178.5 50 L 178.5 48 L 181 46.5 L 179.5 46 L 177 47 L 179.5 43 L 182.5 41 L 184.5 41 L 186.5 40 Z M 201 49 L 202 51 Q 203 48 201 49 Z M 166 54 L 167 55 L 168 56 Q 169 53 166 54 Z M 201 54 L 201 55 L 203 55 L 201 54 Z M 135 67 L 134 71 L 135 71 L 135 67 Z M 233 67 L 232 70 L 234 70 L 233 67 Z M 236 67 L 234 69 L 236 69 L 236 67 Z M 261 82 L 262 84 L 263 84 L 261 82 Z M 77 103 L 77 104 L 79 104 L 77 103 Z M 308 106 Q 306 109 309 108 L 308 106 Z M 58 108 L 58 109 L 60 109 L 58 108 Z M 310 108 L 309 111 L 311 111 L 310 108 Z M 55 109 L 55 111 L 57 110 L 55 109 Z M 312 109 L 312 110 L 314 110 L 312 109 Z M 43 115 L 41 118 L 44 116 L 43 115 Z M 47 115 L 45 117 L 47 117 L 47 115 Z M 322 117 L 322 119 L 324 118 L 322 117 Z M 77 136 L 75 138 L 79 140 Q 83 141 82 139 L 77 136 Z M 135 139 L 135 141 L 138 140 L 135 139 Z M 95 146 L 94 148 L 98 148 L 95 146 Z M 260 204 L 259 209 L 260 209 L 260 204 Z M 321 257 Q 319 260 322 259 L 321 257 Z M 307 266 L 307 267 L 309 267 L 307 266 Z M 272 287 L 271 289 L 274 288 L 272 287 Z M 181 296 L 180 303 L 182 302 L 181 296 Z M 181 308 L 180 312 L 182 312 L 181 308 Z M 187 310 L 185 312 L 186 314 Q 184 318 189 317 L 190 315 L 187 313 L 188 311 L 187 310 Z M 192 315 Q 190 318 193 317 L 192 315 Z M 187 318 Q 184 324 189 322 L 187 318 Z M 190 318 L 191 320 L 194 320 Q 193 317 190 318 Z " /><path fill="rgb(0,65,251)" stroke="rgb(0,65,251)" stroke-width="1" opacity="1" d="M 175.5 45 L 174.5 47 L 175.5 45 Z " /><path fill="rgb(0,65,251)" stroke="rgb(0,65,251)" stroke-width="1" opacity="1" d="M 157.5 54 L 156.5 56 L 155 55.5 L 157.5 54 Z " /><path fill="rgb(0,65,251)" stroke="rgb(0,65,251)" stroke-width="1" opacity="1" d="M 61 171 L 63 171 Q 61.9 173.7 64.5 173 L 69.5 176 Q 71 173.5 72.5 177 L 84.5 184 Q 85.8 181.8 87 184.5 L 87.5 186 L 89.5 186 Q 92.1 185.3 91 188 L 93.5 188 L 105.5 194 L 108.5 197 L 111.5 197 L 119 201 Q 117.9 203.7 120.5 203 L 124.5 205 L 136.5 212 Q 137.7 209.8 139 212.5 L 139 222.5 L 136 223 Q 137.1 220.3 134.5 221 L 131 218.5 Q 136.4 219.4 138 216.5 L 136.5 213 L 135.5 215 L 133.5 214 L 131 215.5 L 131.5 217 L 128.5 218 Q 116.4 213.6 107.5 206 L 104 206 L 103.5 204 L 102 204.5 L 101.5 203 L 100 203.5 L 100.5 202 L 91 199 L 90.5 197 L 89 197.5 Q 89.8 194.9 86.5 196 L 74 189.5 L 74.5 188 L 61 183 L 62 177.5 L 61 171 Z " /><path fill="rgb(0,65,251)" stroke="rgb(0,65,251)" stroke-width="1" opacity="1" d="M 61.5 204 L 62 206 L 66 206 Q 64.8 209 68.5 208 L 91.5 221 L 94 221 Q 92.8 224 96.5 223 L 101 225 Q 99.9 227.7 102.5 227 L 105.5 228 Q 111 234.7 121 236 Q 119.9 238.7 122.5 238 L 134 243 Q 133 246 136 245 L 136 248.5 L 137 248.5 Q 136 244.8 139 246 L 138.5 257 L 130.5 251 L 127.5 251 L 116.5 246 L 103.5 237 L 101 238 Q 102.3 235 98.5 236 L 88.5 229 L 81 227 L 80.5 225 L 79 225.5 L 77.5 223 L 73.5 221 Q 72 223.5 70.5 220 L 66 219 L 65.5 217 L 64 217.5 L 63.5 216 L 62 216.5 L 61 214.5 L 61.5 204 Z M 111 234 L 107 236 Q 108 238 112 237 L 111 234 Z M 134 248 Q 132 251 135 250 L 134 248 Z " /><path fill="rgb(0,65,251)" stroke="rgb(0,65,251)" stroke-width="1" opacity="1" d="M 61.5 238 L 73.5 245 L 76 245 Q 74.9 247.7 77.5 247 L 81 248 L 81.5 250 L 83 249.5 Q 82.3 251.8 84.5 251 L 89.5 254 L 91 253.5 L 91 255 L 94 255 Q 92.9 257.7 95.5 257 L 106 261.5 L 105.5 263 L 113 265 L 113.5 267 L 115 266.5 L 115.5 268 L 117 267.5 L 118.5 270 L 128 273 Q 126.7 276.3 131.5 275 L 135 279.5 L 132 281 Q 134.2 286.6 128.5 285 L 117 280 L 116.5 278 L 115 278.5 L 114.5 277 L 113 277.5 L 113.5 276 L 105.5 272 L 104 272.5 L 103.5 271 L 102 271.5 L 99.5 268 L 90.5 264 Q 89 266.5 87.5 263 L 61 248.5 L 62 241.5 L 61.5 238 Z M 100 262 L 97 267 L 105 268 L 106 266 L 104 263 L 100 262 Z " /><path fill="rgb(0,65,251)" stroke="rgb(0,65,251)" stroke-width="1" opacity="1" d="M 33 273 L 40.5 277 L 42.5 277 L 45.5 279 L 51 281 L 51.5 283 L 53.5 283 Q 56.1 282.3 55 285 L 58.5 285 L 58.5 287 L 66 289 L 66.5 291 L 68 290.5 Q 67.3 292.8 69.5 292 L 74 293 Q 72.9 295.7 75.5 295 L 79 296 Q 77.9 298.7 80.5 298 L 83 298.5 Q 82.2 301.1 85.5 300 L 89 301 Q 87.9 303.7 90.5 303 L 94 304 Q 92.8 307 96.5 306 L 104 310.5 L 103.5 314 L 101.5 313 Q 98.8 314.2 101 315.5 L 101.5 317 Q 102.7 314.8 104 317.5 L 104 424.5 L 102.5 426 L 102.5 424 Q 100.3 423.3 101 425.5 L 99.5 428 L 93.5 424 Q 92 426.5 90.5 423 L 86 420.5 L 87.5 421 L 93 419.5 L 89 419 L 86.5 415 L 84.5 416 L 82.5 416 L 78.5 415 L 78.5 417 L 71 412.5 Q 71.8 410.3 69.5 411 L 68 411.5 L 67.5 410 L 65.5 410 L 63 408.5 L 64.5 409 Q 69.3 409.8 71 407.5 L 66 406.5 L 68 405.5 L 63 403.5 L 62.5 402 L 61.5 405 L 58.5 404 L 57 403.5 L 59 402.5 L 54.5 402 L 55.5 405 L 53 404 L 52.5 402 L 50.5 402 L 47 401 L 46.5 397 L 45.5 400 Q 42.4 395.4 36 395 L 35.5 393 Q 34.3 395.3 33 392.5 L 33 286.5 L 34.5 286 L 38.5 281 L 40 280.5 Q 38.5 276.8 33 278 L 33 273 Z M 35 379 L 34 385 L 36 385 Q 37 380 35 379 Z M 50 394 L 51 395 L 52 396 Q 53 393 50 394 Z " /><path fill="rgb(0,65,251)" stroke="rgb(0,65,251)" stroke-width="1" opacity="1" d="M 138.5 280 L 139 290.5 L 137.5 290 L 132 286.5 L 136.5 283 L 138 283.5 L 138.5 280 Z " /><path fill="rgb(0,65,251)" stroke="rgb(0,65,251)" stroke-width="1" opacity="1" d="M 82.5 418 L 83.5 420 L 82.5 418 Z " /><path fill="rgb(0,65,251)" stroke="rgb(0,65,251)" stroke-width="1" opacity="1" d="M 102.5 427 L 104 427.5 L 101.5 429 L 102.5 427 Z " /><path fill="rgb(49,118,246)" stroke="rgb(49,118,246)" stroke-width="1" opacity="0.9450980392156862" d="M 44.5 124 L 45.5 126 L 44.5 124 Z " /><path fill="rgb(49,118,246)" stroke="rgb(49,118,246)" stroke-width="1" opacity="0.9450980392156862" d="M 57.5 131 L 58.5 133 L 57.5 131 Z " /><path fill="rgb(49,118,246)" stroke="rgb(49,118,246)" stroke-width="1" opacity="0.9450980392156862" d="M 68.5 137 L 69.5 139 L 68.5 137 Z " /><path fill="rgb(49,118,246)" stroke="rgb(49,118,246)" stroke-width="1" opacity="0.9450980392156862" d="M 81.5 144 L 82.5 146 L 81.5 144 Z " /><path fill="rgb(49,118,246)" stroke="rgb(49,118,246)" stroke-width="1" opacity="0.9450980392156862" d="M 92.5 150 L 93.5 152 L 92.5 150 Z " /><path fill="rgb(49,118,246)" stroke="rgb(49,118,246)" stroke-width="1" opacity="0.9450980392156862" d="M 60 170 L 64 171.5 L 62.5 171 L 61 171.5 L 61 180.5 L 60 180.5 L 60 170 Z " /><path fill="rgb(49,118,246)" stroke="rgb(49,118,246)" stroke-width="1" opacity="0.9450980392156862" d="M 79.5 179 L 80.5 181 L 79.5 179 Z " /><path fill="rgb(49,118,246)" stroke="rgb(49,118,246)" stroke-width="1" opacity="0.9450980392156862" d="M 64.5 184 L 65.5 186 L 64.5 184 Z " /><path fill="rgb(49,118,246)" stroke="rgb(49,118,246)" stroke-width="1" opacity="0.9450980392156862" d="M 90.5 185 L 91.5 187 L 90.5 185 Z " /><path fill="rgb(49,118,246)" stroke="rgb(49,118,246)" stroke-width="1" opacity="0.9450980392156862" d="M 81.5 193 L 82.5 195 L 81.5 193 Z " /><path fill="rgb(49,118,246)" stroke="rgb(49,118,246)" stroke-width="1" opacity="0.9450980392156862" d="M 105.5 193 L 108 194.5 L 106.5 195 L 105.5 193 Z " /><path fill="rgb(49,118,246)" stroke="rgb(49,118,246)" stroke-width="1" opacity="0.9450980392156862" d="M 109.5 195 L 110.5 197 L 109.5 195 Z " /><path fill="rgb(49,118,246)" stroke="rgb(49,118,246)" stroke-width="1" opacity="0.9450980392156862" d="M 94.5 200 L 95.5 202 L 94.5 200 Z " /><path fill="rgb(49,118,246)" stroke="rgb(49,118,246)" stroke-width="1" opacity="0.9450980392156862" d="M 118.5 200 L 119.5 202 L 118.5 200 Z " /><path fill="rgb(49,118,246)" stroke="rgb(49,118,246)" stroke-width="1" opacity="0.9450980392156862" d="M 60 203 L 63 204.5 L 61 204.5 L 61 215.5 L 62 216.5 L 60 215.5 L 60 203 Z " /><path fill="rgb(49,118,246)" stroke="rgb(49,118,246)" stroke-width="1" opacity="0.9450980392156862" d="M 127.5 205 L 128.5 207 L 127.5 205 Z " /><path fill="rgb(49,118,246)" stroke="rgb(49,118,246)" stroke-width="1" opacity="0.9450980392156862" d="M 107.5 207 L 108.5 209 L 107.5 207 Z " /><path fill="rgb(49,118,246)" stroke="rgb(49,118,246)" stroke-width="1" opacity="0.9450980392156862" d="M 138.5 211 L 139.5 213 L 138.5 211 Z " /><path fill="rgb(49,118,246)" stroke="rgb(49,118,246)" stroke-width="1" opacity="0.9450980392156862" d="M 120.5 214 L 121.5 216 L 120.5 214 Z " /><path fill="rgb(49,118,246)" stroke="rgb(49,118,246)" stroke-width="1" opacity="0.9450980392156862" d="M 139.5 216 L 140 224.5 L 139 224.5 L 139.5 216 Z " /><path fill="rgb(49,118,246)" stroke="rgb(49,118,246)" stroke-width="1" opacity="0.9450980392156862" d="M 87.5 217 L 91 219.5 L 89.5 219 L 87.5 217 Z " /><path fill="rgb(49,118,246)" stroke="rgb(49,118,246)" stroke-width="1" opacity="0.9450980392156862" d="M 69.5 220 L 70.5 222 L 69.5 220 Z " /><path fill="rgb(49,118,246)" stroke="rgb(49,118,246)" stroke-width="1" opacity="0.9450980392156862" d="M 98.5 223 L 102 225.5 L 100.5 225 L 98.5 223 Z " /><path fill="rgb(49,118,246)" stroke="rgb(49,118,246)" stroke-width="1" opacity="0.9450980392156862" d="M 111.5 230 L 112.5 232 L 111.5 230 Z " /><path fill="rgb(49,118,246)" stroke="rgb(49,118,246)" stroke-width="1" opacity="0.9450980392156862" d="M 93.5 233 L 94.5 235 L 93.5 233 Z " /><path fill="rgb(49,118,246)" stroke="rgb(49,118,246)" stroke-width="1" opacity="0.9450980392156862" d="M 120.5 235 L 121.5 237 L 120.5 235 Z " /><path fill="rgb(49,118,246)" stroke="rgb(49,118,246)" stroke-width="1" opacity="0.9450980392156862" d="M 60 237 L 62 237.5 L 61 238.5 L 61 249.5 L 61.5 251 L 60 249.5 L 60 237 Z " /><path fill="rgb(49,118,246)" stroke="rgb(49,118,246)" stroke-width="1" opacity="0.9450980392156862" d="M 71.5 242 L 72.5 244 L 71.5 242 Z " /><path fill="rgb(49,118,246)" stroke="rgb(49,118,246)" stroke-width="1" opacity="0.9450980392156862" d="M 135.5 243 L 136.5 245 L 135.5 243 Z " /><path fill="rgb(49,118,246)" stroke="rgb(49,118,246)" stroke-width="1" opacity="0.9450980392156862" d="M 138.5 245 L 139.5 247 L 138.5 245 Z " /><path fill="rgb(49,118,246)" stroke="rgb(49,118,246)" stroke-width="1" opacity="0.9450980392156862" d="M 119.5 247 L 120.5 249 L 119.5 247 Z " /><path fill="rgb(49,118,246)" stroke="rgb(49,118,246)" stroke-width="1" opacity="0.9450980392156862" d="M 82.5 248 L 83.5 250 L 82.5 248 Z " /><path fill="rgb(49,118,246)" stroke="rgb(49,118,246)" stroke-width="1" opacity="0.9450980392156862" d="M 139.5 248 L 140 256.5 L 139 256.5 L 139.5 248 Z " /><path fill="rgb(49,118,246)" stroke="rgb(49,118,246)" stroke-width="1" opacity="0.9450980392156862" d="M 128.5 252 L 129.5 254 L 128.5 252 Z " /><path fill="rgb(49,118,246)" stroke="rgb(49,118,246)" stroke-width="1" opacity="0.9450980392156862" d="M 95.5 255 L 99 257.5 L 97.5 257 L 95.5 255 Z " /><path fill="rgb(49,118,246)" stroke="rgb(49,118,246)" stroke-width="1" opacity="0.9450980392156862" d="M 79.5 259 L 80.5 261 L 79.5 259 Z " /><path fill="rgb(49,118,246)" stroke="rgb(49,118,246)" stroke-width="1" opacity="0.9450980392156862" d="M 110.5 263 L 111.5 265 L 110.5 263 Z " /><path fill="rgb(49,118,246)" stroke="rgb(49,118,246)" stroke-width="1" opacity="0.9450980392156862" d="M 92.5 266 L 93.5 268 L 92.5 266 Z " /><path fill="rgb(49,118,246)" stroke="rgb(49,118,246)" stroke-width="1" opacity="0.9450980392156862" d="M 121.5 269 L 125 271.5 L 123.5 271 L 121.5 269 Z " /><path fill="rgb(49,118,246)" stroke="rgb(49,118,246)" stroke-width="1" opacity="0.9450980392156862" d="M 105.5 273 L 106.5 275 L 105.5 273 Z " /><path fill="rgb(49,118,246)" stroke="rgb(49,118,246)" stroke-width="1" opacity="0.9450980392156862" d="M 136.5 277 L 137.5 279 L 136.5 277 Z " /><path fill="rgb(49,118,246)" stroke="rgb(49,118,246)" stroke-width="1" opacity="0.9450980392156862" d="M 120.5 281 L 121.5 283 L 120.5 281 Z " /><path fill="rgb(49,118,246)" stroke="rgb(49,118,246)" stroke-width="1" opacity="0.9450980392156862" d="M 54.5 282 L 55.5 284 L 54.5 282 Z " /><path fill="rgb(49,118,246)" stroke="rgb(49,118,246)" stroke-width="1" opacity="0.9450980392156862" d="M 139.5 282 L 140 292 L 138 291.5 L 139 290.5 L 139.5 282 Z " /><path fill="rgb(49,118,246)" stroke="rgb(49,118,246)" stroke-width="1" opacity="0.9450980392156862" d="M 129.5 286 L 130.5 288 L 129.5 286 Z " /><path fill="rgb(49,118,246)" stroke="rgb(49,118,246)" stroke-width="1" opacity="0.9450980392156862" d="M 67.5 289 L 71 291.5 L 69.5 291 L 67.5 289 Z " /><path fill="rgb(49,118,246)" stroke="rgb(49,118,246)" stroke-width="1" opacity="0.9450980392156862" d="M 82.5 297 L 83.5 299 L 82.5 297 Z " /><path fill="rgb(49,118,246)" stroke="rgb(49,118,246)" stroke-width="1" opacity="0.9450980392156862" d="M 95.5 304 L 99 306.5 L 97.5 306 L 95.5 304 Z " /><path fill="rgb(0,63,248)" stroke="rgb(0,63,248)" stroke-width="1" opacity="0.996078431372549" d="M 186.5 39 L 185.5 41 L 184 40.5 L 186.5 39 Z " /><path fill="rgb(0,63,248)" stroke="rgb(0,63,248)" stroke-width="1" opacity="0.996078431372549" d="M 178.5 43 L 180 46.5 Q 180.8 48.8 178.5 48 L 178.5 50 Q 177.1 47.4 172.5 48 L 168.5 49 L 168.5 48 L 174.5 45 L 178.5 47 L 178.5 43 Z " /><path fill="rgb(0,63,248)" stroke="rgb(0,63,248)" stroke-width="1" opacity="0.996078431372549" d="M 194.5 43 L 200 46 L 200 48 L 195 48 L 194.5 46 L 193 46.5 L 194.5 43 Z " /><path fill="rgb(0,63,248)" stroke="rgb(0,63,248)" stroke-width="1" opacity="0.996078431372549" d="M 160.5 52 L 160 53.5 L 161 55.5 L 160 58 L 151 57.5 L 154.5 55 L 156.5 56 L 160.5 52 Z " /><path fill="rgb(0,63,248)" stroke="rgb(0,63,248)" stroke-width="1" opacity="0.996078431372549" d="M 120.5 73 L 121 75 L 119 75.5 L 119.5 77 L 117 75.5 L 120.5 73 Z " /><path fill="rgb(0,63,248)" stroke="rgb(0,63,248)" stroke-width="1" opacity="0.996078431372549" d="M 260.5 79 L 261.5 81 L 260.5 79 Z " /><path fill="rgb(0,63,248)" stroke="rgb(0,63,248)" stroke-width="1" opacity="0.996078431372549" d="M 260.5 82 L 263 83.5 L 261.5 84 L 260.5 82 Z " /><path fill="rgb(0,63,248)" stroke="rgb(0,63,248)" stroke-width="1" opacity="0.996078431372549" d="M 265.5 82 L 264.5 84 L 265.5 82 Z " /><path fill="rgb(0,63,248)" stroke="rgb(0,63,248)" stroke-width="1" opacity="0.996078431372549" d="M 102.5 83 L 101.5 85 L 100 84.5 L 102.5 83 Z " /><path fill="rgb(0,63,248)" stroke="rgb(0,63,248)" stroke-width="1" opacity="0.996078431372549" d="M 87.5 91 L 88 93 L 86 92.5 L 87.5 91 Z " /><path fill="rgb(0,63,248)" stroke="rgb(0,63,248)" stroke-width="1" opacity="0.996078431372549" d="M 281.5 91 L 288 94.5 L 284 95.5 L 284.5 97 L 279 94.5 L 281.5 91 Z " /><path fill="rgb(0,63,248)" stroke="rgb(0,63,248)" stroke-width="1" opacity="0.996078431372549" d="M 188.5 113 L 192 115.5 L 190.5 116 L 188 114.5 Q 188.9 117.9 183.5 116 L 181 117.5 L 183.5 114 L 188.5 113 Z " /><path fill="rgb(0,63,248)" stroke="rgb(0,63,248)" stroke-width="1" opacity="0.996078431372549" d="M 165.5 124 L 167 124.5 L 163.5 126 L 163.5 125 L 165.5 124 Z " /><path fill="rgb(0,63,248)" stroke="rgb(0,63,248)" stroke-width="1" opacity="0.996078431372549" d="M 204.5 124 L 207 125.5 L 205.5 126 L 204.5 124 Z " /><path fill="rgb(0,63,248)" stroke="rgb(0,63,248)" stroke-width="1" opacity="0.996078431372549" d="M 56.5 130 L 62 132.5 L 60.5 133 L 56.5 131 L 56.5 130 Z " /><path fill="rgb(0,63,248)" stroke="rgb(0,63,248)" stroke-width="1" opacity="0.996078431372549" d="M 76.5 136 L 82 138.5 Q 82.9 141.5 78.5 140 L 75 137.5 L 76.5 136 Z " /><path fill="rgb(0,63,248)" stroke="rgb(0,63,248)" stroke-width="1" opacity="0.996078431372549" d="M 71.5 138 L 80 142.5 L 78.5 143 L 71.5 139 L 71.5 138 Z " /><path fill="rgb(0,63,248)" stroke="rgb(0,63,248)" stroke-width="1" opacity="0.996078431372549" d="M 135 139 L 138 139.5 L 135 141 L 135 139 Z " /><path fill="rgb(0,63,248)" stroke="rgb(0,63,248)" stroke-width="1" opacity="0.996078431372549" d="M 239.5 143 L 242.5 144 L 243.5 143 L 247 146.5 Q 245.8 149.3 244.5 147 Q 239.9 146.3 239.5 143 Z " /><path fill="rgb(0,63,248)" stroke="rgb(0,63,248)" stroke-width="1" opacity="0.996078431372549" d="M 94.5 146 L 98 147.5 L 94 148 L 94.5 146 Z " /><path fill="rgb(0,63,248)" stroke="rgb(0,63,248)" stroke-width="1" opacity="0.996078431372549" d="M 90.5 148 L 94.5 150 L 97.5 149 L 97.5 150 L 95 150.5 L 99 152 L 98.5 154 L 91.5 150 L 90.5 148 Z " /><path fill="rgb(0,63,248)" stroke="rgb(0,63,248)" stroke-width="1" opacity="0.996078431372549" d="M 67.5 174 L 70 175.5 L 68.5 175 L 67.5 174 Z " /><path fill="rgb(0,63,248)" stroke="rgb(0,63,248)" stroke-width="1" opacity="0.996078431372549" d="M 82.5 182 L 85 183.5 L 83.5 183 L 82.5 182 Z " /><path fill="rgb(0,63,248)" stroke="rgb(0,63,248)" stroke-width="1" opacity="0.996078431372549" d="M 107.5 195 L 110 196.5 L 108.5 197 L 107.5 195 Z " /><path fill="rgb(0,63,248)" stroke="rgb(0,63,248)" stroke-width="1" opacity="0.996078431372549" d="M 95.5 200 L 102 203.5 L 100.5 203 L 95.5 201 L 95.5 200 Z " /><path fill="rgb(0,63,248)" stroke="rgb(0,63,248)" stroke-width="1" opacity="0.996078431372549" d="M 259.5 204 L 260 208.5 L 259 208.5 L 259.5 204 Z " /><path fill="rgb(0,63,248)" stroke="rgb(0,63,248)" stroke-width="1" opacity="0.996078431372549" d="M 106.5 206 L 111 208.5 L 109.5 208 Q 105.7 207.7 106.5 206 Z " /><path fill="rgb(0,63,248)" stroke="rgb(0,63,248)" stroke-width="1" opacity="0.996078431372549" d="M 135.5 210 L 136.5 212 L 135.5 210 Z " /><path fill="rgb(0,63,248)" stroke="rgb(0,63,248)" stroke-width="1" opacity="0.996078431372549" d="M 136.5 213 L 138 216.5 Q 136.4 219.4 131 218.5 L 136 221.5 L 134.5 222 L 129 218.5 L 132 216.5 L 131.5 215 L 134.5 214 L 136 214.5 L 136.5 213 Z " /><path fill="rgb(0,63,248)" stroke="rgb(0,63,248)" stroke-width="1" opacity="0.996078431372549" d="M 125.5 216 L 128 217.5 L 126.5 218 L 125.5 216 Z " /><path fill="rgb(0,63,248)" stroke="rgb(0,63,248)" stroke-width="1" opacity="0.996078431372549" d="M 257.5 219 L 256.5 221 L 257.5 219 Z " /><path fill="rgb(0,63,248)" stroke="rgb(0,63,248)" stroke-width="1" opacity="0.996078431372549" d="M 73.5 221 L 79 224.5 L 77.5 224 Q 73.5 223.5 73.5 221 Z " /><path fill="rgb(0,63,248)" stroke="rgb(0,63,248)" stroke-width="1" opacity="0.996078431372549" d="M 87.5 229 L 93 232.5 L 91.5 232 Q 87.5 231.5 87.5 229 Z " /><path fill="rgb(0,63,248)" stroke="rgb(0,63,248)" stroke-width="1" opacity="0.996078431372549" d="M 109.5 230 L 119 235.5 L 117.5 235 Q 110.6 234.3 109.5 230 Z " /><path fill="rgb(0,63,248)" stroke="rgb(0,63,248)" stroke-width="1" opacity="0.996078431372549" d="M 234.5 231 L 234 232.5 Q 234.7 235.1 232 234 L 232 236 L 229 236 Q 227.9 233.3 230.5 234 L 234.5 231 Z " /><path fill="rgb(0,63,248)" stroke="rgb(0,63,248)" stroke-width="1" opacity="0.996078431372549" d="M 110.5 234 L 112 237 Q 108.2 238 107 235.5 L 110.5 234 Z " /><path fill="rgb(0,63,248)" stroke="rgb(0,63,248)" stroke-width="1" opacity="0.996078431372549" d="M 103.5 237 L 112 242.5 L 110.5 242 L 103 239 L 103.5 237 Z " /><path fill="rgb(0,63,248)" stroke="rgb(0,63,248)" stroke-width="1" opacity="0.996078431372549" d="M 62.5 238 L 69 241.5 L 67.5 242 Q 62.9 240.8 62.5 238 Z " /><path fill="rgb(0,63,248)" stroke="rgb(0,63,248)" stroke-width="1" opacity="0.996078431372549" d="M 61.5 241 L 62 245.5 L 61 245.5 L 61.5 241 Z " /><path fill="rgb(0,63,248)" stroke="rgb(0,63,248)" stroke-width="1" opacity="0.996078431372549" d="M 134.5 244 L 138 245.5 L 136.5 249 L 136 245 L 134.5 244 Z " /><path fill="rgb(0,63,248)" stroke="rgb(0,63,248)" stroke-width="1" opacity="0.996078431372549" d="M 76.5 246 L 79 247.5 L 77.5 247 L 76.5 246 Z " /><path fill="rgb(0,63,248)" stroke="rgb(0,63,248)" stroke-width="1" opacity="0.996078431372549" d="M 122.5 248 L 129 251.5 L 127.5 252 Q 122.9 250.8 122.5 248 Z " /><path fill="rgb(0,63,248)" stroke="rgb(0,63,248)" stroke-width="1" opacity="0.996078431372549" d="M 133.5 248 L 134.5 250 Q 131.7 250.7 133.5 248 Z " /><path fill="rgb(0,63,248)" stroke="rgb(0,63,248)" stroke-width="1" opacity="0.996078431372549" d="M 202.5 248 L 203 250 L 200 249.5 L 202.5 248 Z " /><path fill="rgb(0,63,248)" stroke="rgb(0,63,248)" stroke-width="1" opacity="0.996078431372549" d="M 86.5 251 L 90 253.5 L 88.5 253 L 86.5 251 Z " /><path fill="rgb(0,63,248)" stroke="rgb(0,63,248)" stroke-width="1" opacity="0.996078431372549" d="M 130.5 252 L 136 255.5 L 134.5 255 Q 130.5 254.5 130.5 252 Z " /><path fill="rgb(0,63,248)" stroke="rgb(0,63,248)" stroke-width="1" opacity="0.996078431372549" d="M 73.5 255 L 85 261.5 L 83.5 261 L 74.5 257 L 73.5 255 Z " /><path fill="rgb(0,63,248)" stroke="rgb(0,63,248)" stroke-width="1" opacity="0.996078431372549" d="M 186.5 256 L 187 257.5 L 182 260 Q 180.9 257.3 183.5 258 L 186.5 256 Z " /><path fill="rgb(0,63,248)" stroke="rgb(0,63,248)" stroke-width="1" opacity="0.996078431372549" d="M 320 261 Q 323.7 259.5 323 262.5 L 321 262.5 L 320.5 264 L 320 261 Z " /><path fill="rgb(0,63,248)" stroke="rgb(0,63,248)" stroke-width="1" opacity="0.996078431372549" d="M 99.5 262 L 103.5 263 L 106 265.5 L 104.5 268 L 100 268.5 L 101.5 271 L 90 264.5 L 91.5 265 L 97 267 L 99.5 262 Z M 98 267 L 98 268 L 100 268 L 98 267 Z " /><path fill="rgb(0,63,248)" stroke="rgb(0,63,248)" stroke-width="1" opacity="0.996078431372549" d="M 105.5 262 L 111 264.5 L 109.5 265 L 105.5 263 L 105.5 262 Z " /><path fill="rgb(0,63,248)" stroke="rgb(0,63,248)" stroke-width="1" opacity="0.996078431372549" d="M 317.5 263 L 319 263.5 L 316.5 265 L 317.5 263 Z " /><path fill="rgb(0,63,248)" stroke="rgb(0,63,248)" stroke-width="1" opacity="0.996078431372549" d="M 117.5 268 L 124 271.5 L 122.5 272 Q 117.9 270.8 117.5 268 Z " /><path fill="rgb(0,63,248)" stroke="rgb(0,63,248)" stroke-width="1" opacity="0.996078431372549" d="M 304.5 270 L 306 270.5 L 300.5 273 L 301.5 271 L 304.5 270 Z " /><path fill="rgb(0,63,248)" stroke="rgb(0,63,248)" stroke-width="1" opacity="0.996078431372549" d="M 105.5 272 L 115 277.5 L 113.5 277 L 106.5 274 L 105.5 272 Z " /><path fill="rgb(0,63,248)" stroke="rgb(0,63,248)" stroke-width="1" opacity="0.996078431372549" d="M 134.5 277 L 139 279.5 L 137.5 284 L 134.5 277 Z " /><path fill="rgb(0,63,248)" stroke="rgb(0,63,248)" stroke-width="1" opacity="0.996078431372549" d="M 288.5 277 L 291 278.5 L 286.5 281 L 288 278.5 L 288.5 277 Z " /><path fill="rgb(0,63,248)" stroke="rgb(0,63,248)" stroke-width="1" opacity="0.996078431372549" d="M 33 278 Q 38.5 276.8 40 280.5 L 37 282.5 L 34.5 286 L 33 285.5 L 33 278 Z " /><path fill="rgb(0,63,248)" stroke="rgb(0,63,248)" stroke-width="1" opacity="0.996078431372549" d="M 44.5 278 L 47 279.5 L 45.5 279 L 44.5 278 Z " /><path fill="rgb(0,63,248)" stroke="rgb(0,63,248)" stroke-width="1" opacity="0.996078431372549" d="M 132 281 L 135 282.5 Q 135.7 285.5 132 284 L 132 281 Z " /><path fill="rgb(0,63,248)" stroke="rgb(0,63,248)" stroke-width="1" opacity="0.996078431372549" d="M 125.5 283 L 135 288.5 L 133.5 288 L 126.5 285 L 125.5 283 Z " /><path fill="rgb(0,63,248)" stroke="rgb(0,63,248)" stroke-width="1" opacity="0.996078431372549" d="M 58.5 286 L 62 287.5 L 60.5 288 L 58.5 287 L 56.5 288 L 56.5 287 L 58.5 286 Z " /><path fill="rgb(0,63,248)" stroke="rgb(0,63,248)" stroke-width="1" opacity="0.996078431372549" d="M 274.5 286 L 273.5 288 L 269.5 290 L 268.5 288 Q 270 290.5 271.5 287 L 274.5 286 Z " /><path fill="rgb(0,63,248)" stroke="rgb(0,63,248)" stroke-width="1" opacity="0.996078431372549" d="M 180.5 296 L 182 301.5 L 180 302.5 L 180.5 296 Z " /><path fill="rgb(0,63,248)" stroke="rgb(0,63,248)" stroke-width="1" opacity="0.996078431372549" d="M 252.5 296 L 251.5 298 L 252.5 296 Z " /><path fill="rgb(0,63,248)" stroke="rgb(0,63,248)" stroke-width="1" opacity="0.996078431372549" d="M 89.5 302 L 93 303.5 L 91.5 304 L 89.5 302 Z " /><path fill="rgb(0,63,248)" stroke="rgb(0,63,248)" stroke-width="1" opacity="0.996078431372549" d="M 242.5 303 L 241.5 305 L 242.5 303 Z " /><path fill="rgb(0,63,248)" stroke="rgb(0,63,248)" stroke-width="1" opacity="0.996078431372549" d="M 99.5 307 L 102 308.5 L 100.5 309 L 99.5 307 Z " /><path fill="rgb(0,63,248)" stroke="rgb(0,63,248)" stroke-width="1" opacity="0.996078431372549" d="M 180.5 308 L 182 311.5 L 180 312 L 180.5 308 Z " /><path fill="rgb(0,63,248)" stroke="rgb(0,63,248)" stroke-width="1" opacity="0.996078431372549" d="M 186.5 310 L 188 310.5 L 187 313 L 190 314.5 L 188.5 317 Q 184.3 318.3 186 313.5 L 185 311.5 L 186.5 310 Z " /><path fill="rgb(0,63,248)" stroke="rgb(0,63,248)" stroke-width="1" opacity="0.996078431372549" d="M 101.5 313 Q 104.1 312.2 103 315.5 L 103.5 317 L 101 316.5 L 100 314.5 L 101.5 313 Z " /><path fill="rgb(0,63,248)" stroke="rgb(0,63,248)" stroke-width="1" opacity="0.996078431372549" d="M 191.5 315 L 192.5 317 Q 189.7 317.7 191.5 315 Z " /><path fill="rgb(0,63,248)" stroke="rgb(0,63,248)" stroke-width="1" opacity="0.996078431372549" d="M 186.5 318 L 189 322 Q 183.9 323.6 186.5 318 Z " /><path fill="rgb(0,63,248)" stroke="rgb(0,63,248)" stroke-width="1" opacity="0.996078431372549" d="M 189.5 318 Q 193.3 317.3 194 319.5 L 190.5 320 L 189.5 318 Z " /><path fill="rgb(0,63,248)" stroke="rgb(0,63,248)" stroke-width="1" opacity="0.996078431372549" d="M 195.5 325 L 199 326.5 L 197 327 Q 198.1 329.7 195.5 329 L 191 330 L 192.5 326 L 195.5 325 Z " /><path fill="rgb(0,63,248)" stroke="rgb(0,63,248)" stroke-width="1" opacity="0.996078431372549" d="M 34.5 379 Q 37.3 380.4 36 385 L 34 385 L 34.5 379 Z " /><path fill="rgb(0,63,248)" stroke="rgb(0,63,248)" stroke-width="1" opacity="0.996078431372549" d="M 49.5 394 Q 52.8 392.9 52 395.5 L 50.5 395 L 49.5 394 Z " /><path fill="rgb(0,63,248)" stroke="rgb(0,63,248)" stroke-width="1" opacity="0.996078431372549" d="M 54.5 402 Q 60.5 401 61.5 405 L 62.5 403 Q 63.8 405.8 68 405.5 L 66 406.5 L 71 407.5 Q 69.3 409.8 64.5 409 L 62.5 409 L 59.5 406 Q 53.9 406.5 54.5 402 Z " /><path fill="rgb(0,63,248)" stroke="rgb(0,63,248)" stroke-width="1" opacity="0.996078431372549" d="M 78.5 415 L 82.5 416 L 84.5 416 L 86.5 415 L 89 419 L 93 419.5 L 87.5 421 L 79.5 417 L 78.5 415 Z " /><path fill="rgb(0,63,248)" stroke="rgb(0,63,248)" stroke-width="1" opacity="0.996078431372549" d="M 101.5 425 L 104 426.5 L 102 427.5 L 102.5 429 L 100 428 L 101.5 425 Z " /></svg>